# xmcd CD database file
#
# Track frame offsets:
#	150
#	22162
#	37124
#	54299
#	80436
#	96973
#	117597
#	133234
#	152546
#	173358
#
# Disc length: 2609 seconds
#
# Revision: 0
# Processed by: cddbd v1.5.2PL0 Copyright (c) Steve Scherf et al.
# Submitted via: CDex 1.70beta2
#
DISCID=7e0a2f0a
DTITLE=Ruth Applin - I'll string along with you
DYEAR=1900
DGENRE=Jazz
TTITLE0=I'll string along with you
TTITLE1=My Baby just cares for me
TTITLE2=S'wonderful
TTITLE3=The nearness of you
TTITLE4=Almost like being in love
TTITLE5=Honeysuckle rose
TTITLE6=Gee baby ain't I good to you
TTITLE7=I've never been in love before
TTITLE8=Georgia on my mind
TTITLE9=Dream a little dream of me
EXTD=
EXTT0=
EXTT1=
EXTT2=
EXTT3=
EXTT4=
EXTT5=
EXTT6=
EXTT7=
EXTT8=
EXTT9=
PLAYORDER=
